<svg xmlns="http://www.w3.org/2000/svg" viewBox="0 0 1600 900">
  <rect width="1600" height="900" fill="#3d2e1a"/>
  <rect y="0" width="1600" height="560" fill="#6b4226"/>
  <rect y="560" width="1600" height="340" fill="#4c2d14"/>
  <rect x="120" y="180" width="1360" height="420" rx="26" fill="#7c4a2c"/>
  <rect x="180" y="240" width="1240" height="320" rx="24" fill="#9b5d35"/>
  <rect x="220" y="280" width="300" height="220" rx="18" fill="#f5deb3" opacity="0.95"/>
  <rect x="560" y="280" width="300" height="220" rx="18" fill="#fef3c7" opacity="0.9"/>
  <rect x="900" y="280" width="300" height="220" rx="18" fill="#fcd34d" opacity="0.9"/>
  <rect x="250" y="320" width="240" height="130" rx="12" fill="#f59e0b" opacity="0.25"/>
  <circle cx="330" cy="390" r="42" fill="#fb923c" opacity="0.8"/>
  <circle cx="640" cy="390" r="42" fill="#f97316" opacity="0.8"/>
  <circle cx="980" cy="390" r="42" fill="#facc15" opacity="0.8"/>
  <rect x="180" y="580" width="260" height="140" rx="20" fill="#b45309" opacity="0.9"/>
  <rect x="470" y="580" width="260" height="140" rx="20" fill="#c2410c" opacity="0.9"/>
  <rect x="760" y="580" width="260" height="140" rx="20" fill="#b45309" opacity="0.9"/>
  <rect x="1050" y="580" width="260" height="140" rx="20" fill="#9a2c0a" opacity="0.9"/>
  <rect x="220" y="610" width="180" height="22" rx="10" fill="#fef3c7" opacity="0.6"/>
  <rect x="510" y="610" width="180" height="22" rx="10" fill="#fef3c7" opacity="0.6"/>
  <rect x="800" y="610" width="180" height="22" rx="10" fill="#fef3c7" opacity="0.6"/>
  <rect x="1090" y="610" width="180" height="22" rx="10" fill="#fef3c7" opacity="0.6"/>
  <circle cx="1380" cy="220" r="100" fill="#fde68a" opacity="0.16"/>
</svg>
