<svg xmlns="http://www.w3.org/2000/svg" viewBox="0 0 1600 900">
  <rect width="1600" height="900" fill="#0d2818"/>
  <rect y="0" width="1600" height="560" fill="#1a4d2e"/>
  <rect y="560" width="1600" height="340" fill="#2e7d4f"/>
  <path d="M0 620 C220 580 510 550 760 590 C1030 635 1290 675 1600 640 L1600 900 L0 900 Z" fill="#3b8d56"/>
  <g fill="#4ade80" opacity="0.5">
    <circle cx="220" cy="240" r="14"/>
    <circle cx="300" cy="210" r="10"/>
    <circle cx="1320" cy="240" r="12"/>
    <circle cx="1400" cy="210" r="10"/>
  </g>
  <g>
    <path d="M250 690 L250 520 C250 500 266 484 286 484 L344 484 C364 484 380 500 380 520 L380 690" fill="none" stroke="#f8fafc" stroke-width="12"/>
    <path d="M1220 690 L1220 520 C1220 500 1236 484 1256 484 L1314 484 C1334 484 1350 500 1350 520 L1350 690" fill="none" stroke="#f8fafc" stroke-width="12"/>
  </g>
  <rect x="420" y="280" width="760" height="320" rx="20" fill="#f8fafc" opacity="0.95"/>
  <rect x="460" y="320" width="680" height="240" rx="14" fill="#e0f2fe"/>
  <rect x="500" y="360" width="220" height="160" rx="12" fill="#7dd3fc" opacity="0.8"/>
  <rect x="740" y="360" width="220" height="160" rx="12" fill="#38bdf8" opacity="0.8"/>
  <rect x="980" y="360" width="120" height="160" rx="12" fill="#0284c7" opacity="0.8"/>
  <rect x="430" y="250" width="820" height="40" rx="16" fill="#111827"/>
  <rect x="520" y="210" width="640" height="48" rx="20" fill="#f59e0b"/>
  <path d="M600 690 L600 540 C600 512 622 490 650 490 L710 490 C738 490 760 512 760 540 L760 690" fill="none" stroke="#f8fafc" stroke-width="10"/>
  <path d="M960 690 L960 540 C960 512 982 490 1010 490 L1070 490 C1098 490 1120 512 1120 540 L1120 690" fill="none" stroke="#f8fafc" stroke-width="10"/>
</svg>
