<svg xmlns="http://www.w3.org/2000/svg" viewBox="0 0 1600 900">
  <rect width="1600" height="900" fill="#2d1f0e"/>
  <rect x="0" y="0" width="1600" height="560" fill="#4a3520"/>
  <rect x="0" y="560" width="1600" height="340" fill="#3d2914"/>
  <rect x="140" y="220" width="760" height="420" rx="26" fill="#5d3f24"/>
  <rect x="180" y="260" width="680" height="360" rx="18" fill="#674121"/>
  <rect x="220" y="300" width="300" height="260" rx="14" fill="#f5deb3" opacity="0.9"/>
  <rect x="560" y="310" width="260" height="180" rx="14" fill="#f1c27d"/>
  <rect x="600" y="340" width="180" height="120" rx="10" fill="#c084fc" opacity="0.55"/>
  <rect x="240" y="330" width="260" height="180" rx="10" fill="#f5f5dc"/>
  <rect x="240" y="520" width="260" height="24" rx="12" fill="#b45309"/>
  <rect x="560" y="490" width="260" height="24" rx="12" fill="#92400e"/>
  <rect x="1100" y="220" width="260" height="420" rx="24" fill="#4c3c2f"/>
  <rect x="1130" y="250" width="200" height="330" rx="16" fill="#6b4423"/>
  <rect x="1160" y="290" width="140" height="80" rx="10" fill="#fb923c" opacity="0.65"/>
  <rect x="1160" y="392" width="140" height="110" rx="10" fill="#fde68a" opacity="0.65"/>
  <rect x="1150" y="520" width="160" height="24" rx="12" fill="#a16207"/>
  <rect x="130" y="620" width="420" height="180" rx="24" fill="#7c2d12" opacity="0.92"/>
  <rect x="910" y="620" width="370" height="180" rx="24" fill="#8b5e3c" opacity="0.92"/>
  <circle cx="1180" cy="150" r="70" fill="#fef3c7" opacity="0.18"/>
  <rect x="0" y="730" width="1600" height="170" fill="#1f2937" opacity="0.45"/>
</svg>
