<svg xmlns="http://www.w3.org/2000/svg" viewBox="0 0 1600 900">
  <rect width="1600" height="900" fill="#111827"/>
  <rect width="1600" height="600" fill="#16213e"/>
  <rect y="600" width="1600" height="300" fill="#0f172a"/>
  <rect x="150" y="180" width="1300" height="420" rx="26" fill="#1f2937"/>
  <rect x="190" y="220" width="1220" height="340" rx="24" fill="#334155"/>
  <rect x="230" y="260" width="1120" height="220" rx="18" fill="#64748b" opacity="0.25"/>
  <rect x="260" y="300" width="180" height="150" rx="10" fill="#f8fafc" opacity="0.16"/>
  <rect x="470" y="300" width="180" height="150" rx="10" fill="#f8fafc" opacity="0.16"/>
  <rect x="680" y="300" width="180" height="150" rx="10" fill="#f8fafc" opacity="0.16"/>
  <rect x="890" y="300" width="180" height="150" rx="10" fill="#f8fafc" opacity="0.16"/>
  <rect x="1100" y="300" width="180" height="150" rx="10" fill="#f8fafc" opacity="0.16"/>
  <rect x="280" y="500" width="140" height="24" rx="12" fill="#f8fafc" opacity="0.2"/>
  <rect x="490" y="500" width="140" height="24" rx="12" fill="#f8fafc" opacity="0.2"/>
  <rect x="700" y="500" width="140" height="24" rx="12" fill="#f8fafc" opacity="0.2"/>
  <rect x="910" y="500" width="140" height="24" rx="12" fill="#f8fafc" opacity="0.2"/>
  <rect x="1120" y="500" width="140" height="24" rx="12" fill="#f8fafc" opacity="0.2"/>
  <rect x="520" y="110" width="560" height="140" rx="24" fill="#1e293b"/>
  <rect x="560" y="140" width="480" height="90" rx="16" fill="#0f766e"/>
  <rect x="720" y="150" width="160" height="60" rx="12" fill="#14b8a6" opacity="0.65"/>
  <rect x="260" y="620" width="320" height="180" rx="24" fill="#e2e8f0" opacity="0.15"/>
  <rect x="1020" y="620" width="320" height="180" rx="24" fill="#e2e8f0" opacity="0.15"/>
</svg>
