<svg xmlns="http://www.w3.org/2000/svg" viewBox="0 0 1600 900">
  <defs>
    <linearGradient id="sky" x1="0" y1="0" x2="0" y2="1">
      <stop offset="0%" stop-color="#7dd3fc"/>
      <stop offset="45%" stop-color="#4f46e5"/>
      <stop offset="100%" stop-color="#0f172a"/>
    </linearGradient>
    <linearGradient id="path" x1="0" y1="0" x2="1" y2="1">
      <stop offset="0%" stop-color="#7c3aed"/>
      <stop offset="100%" stop-color="#1f2937"/>
    </linearGradient>
  </defs>
  <rect width="1600" height="900" fill="url(#sky)"/>
  <rect y="620" width="1600" height="280" fill="#1f5b3d"/>
  <path d="M0 620 C220 560 460 530 720 565 C980 600 1260 635 1600 600 L1600 900 L0 900 Z" fill="#2f7f4f"/>
  <path d="M0 680 C220 650 430 630 620 650 C800 670 1040 710 1600 690 L1600 900 L0 900 Z" fill="#3b8d56"/>
  <g opacity="0.4">
    <ellipse cx="220" cy="200" rx="160" ry="120" fill="#fff"/>
    <ellipse cx="330" cy="180" rx="180" ry="140" fill="#fff"/>
    <ellipse cx="1260" cy="220" rx="200" ry="140" fill="#fff"/>
  </g>
  <g>
    <rect x="560" y="300" width="480" height="320" rx="20" fill="#f8fafc" opacity="0.92"/>
    <rect x="610" y="360" width="380" height="230" rx="12" fill="#eff6ff"/>
    <rect x="640" y="390" width="160" height="170" rx="10" fill="#dbeafe"/>
    <rect x="820" y="390" width="120" height="170" rx="10" fill="#bfdbfe"/>
    <rect x="580" y="280" width="520" height="40" rx="14" fill="#111827"/>
    <rect x="575" y="260" width="530" height="28" rx="14" fill="#f59e0b"/>
    <rect x="720" y="250" width="240" height="80" rx="16" fill="#1f2937"/>
    <rect x="740" y="270" width="200" height="34" rx="10" fill="#f8fafc" opacity="0.9"/>
  </g>
  <g opacity="0.9">
    <path d="M100 680 L250 520 L380 680 Z" fill="#f59e0b"/>
    <path d="M300 680 L430 500 L560 680 Z" fill="#fb923c"/>
    <path d="M1240 680 L1385 520 L1520 680 Z" fill="#f59e0b"/>
    <path d="M1420 680 L1520 560 L1600 680 Z" fill="#fb923c"/>
  </g>
  <g>
    <path d="M320 680 L320 560 C320 525 345 500 380 500 L440 500 C475 500 500 525 500 560 L500 680" fill="none" stroke="#f8fafc" stroke-width="14"/>
    <path d="M1100 680 L1100 560 C1100 525 1125 500 1160 500 L1220 500 C1255 500 1280 525 1280 560 L1280 680" fill="none" stroke="#f8fafc" stroke-width="14"/>
  </g>
  <g fill="#2e7d32">
    <circle cx="220" cy="420" r="16"/>
    <circle cx="260" cy="410" r="16"/>
    <circle cx="300" cy="430" r="16"/>
    <circle cx="1320" cy="430" r="16"/>
    <circle cx="1360" cy="420" r="16"/>
    <circle cx="1400" cy="440" r="16"/>
  </g>
</svg>
