<svg xmlns="http://www.w3.org/2000/svg" viewBox="0 0 360 640" role="img" aria-labelledby="title"><title id="title">Chân dung bố Minh</title><defs><linearGradient id="shirt" x2="0" y2="1"><stop stop-color="#315b78"/><stop offset="1" stop-color="#172f48"/></linearGradient><radialGradient id="skin"><stop stop-color="#efbd91"/><stop offset="1" stop-color="#c47e58"/></radialGradient></defs><ellipse cx="180" cy="610" rx="145" ry="25" fill="#172a31" opacity=".35"/><path d="M45 640c10-151 58-216 135-216s125 65 135 216" fill="url(#shirt)"/><path d="M145 403h70v76l-35 28-35-28z" fill="#bd7754"/><ellipse cx="180" cy="273" rx="91" ry="125" fill="url(#skin)"/><path d="M91 251c-2-80 30-132 91-132 67 0 94 53 88 137-27-54-60-77-101-73-32 3-58 25-78 68z" fill="#30343a"/><path d="M99 219c19-57 51-81 94-78 34 2 59 21 74 58-47-25-106-20-168 20z" fill="#3b4046"/><path d="M126 277q20-14 40 0M194 277q20-14 40 0" fill="none" stroke="#54372f" stroke-width="7" stroke-linecap="round"/><circle cx="147" cy="281" r="4" fill="#1c2a35"/><circle cx="213" cy="281" r="4" fill="#1c2a35"/><path d="M157 334q23 14 46-1" fill="none" stroke="#814b42" stroke-width="6" stroke-linecap="round"/><path d="M112 366q68 38 136 0" fill="none" stroke="#9c604c" stroke-width="5" opacity=".35"/><path d="M70 640l15-108 60-70 35 45 35-45 60 70 15 108" fill="url(#shirt)"/><path d="M145 462l35 45 35-45-10 87h-50z" fill="#d7e6ed"/></svg>