<svg xmlns="http://www.w3.org/2000/svg" viewBox="0 0 360 640" role="img" aria-labelledby="title"><title id="title">Chân dung mẹ Minh</title><defs><linearGradient id="dress" x2="0" y2="1"><stop stop-color="#b45d68"/><stop offset="1" stop-color="#713747"/></linearGradient><radialGradient id="skin"><stop stop-color="#f2c49c"/><stop offset="1" stop-color="#c98261"/></radialGradient></defs><ellipse cx="180" cy="610" rx="145" ry="25" fill="#172a31" opacity=".35"/><path d="M45 640c8-151 58-218 135-218s127 67 135 218" fill="url(#dress)"/><path d="M145 399h70v82l-35 31-35-31z" fill="#c47f60"/><path d="M82 285c0-109 39-170 99-170 67 0 104 62 98 179l-23 128H99z" fill="#31292b"/><ellipse cx="180" cy="270" rx="88" ry="126" fill="url(#skin)"/><path d="M93 253c3-92 37-139 91-139 58 0 89 47 87 140-28-48-62-72-102-70-31 1-56 24-76 69z" fill="#3b3031"/><path d="M123 274q20-15 40 0M197 274q20-15 40 0" fill="none" stroke="#5a3835" stroke-width="7" stroke-linecap="round"/><circle cx="144" cy="278" r="4" fill="#27323a"/><circle cx="216" cy="278" r="4" fill="#27323a"/><path d="M157 332q23 17 46 0" fill="none" stroke="#994f57" stroke-width="6" stroke-linecap="round"/><path d="M65 640l20-111 60-67 35 50 35-50 60 67 20 111" fill="url(#dress)"/><path d="M145 462l35 50 35-50 20 39-55 54-55-54z" fill="#f4e4d7"/></svg>