<svg xmlns="http://www.w3.org/2000/svg" viewBox="0 0 360 640" role="img" aria-labelledby="title"><title id="title">Chân dung Ông Tư</title><defs><linearGradient id="coat" x2="0" y2="1"><stop stop-color="#496b62"/><stop offset="1" stop-color="#203c3a"/></linearGradient><radialGradient id="skin"><stop stop-color="#e7b88c"/><stop offset="1" stop-color="#bd7d5a"/></radialGradient></defs><ellipse cx="180" cy="610" rx="145" ry="25" fill="#172a31" opacity=".35"/><path d="M50 640c8-153 56-220 130-220s122 67 130 220" fill="url(#coat)"/><path d="M145 405h70v73l-35 31-35-31z" fill="#b87958"/><ellipse cx="180" cy="270" rx="92" ry="127" fill="url(#skin)"/><path d="M89 260c-3-88 29-142 91-142 69 0 98 58 90 143-18-65-50-91-94-91-41 0-70 27-87 90z" fill="#e8e3d9"/><path d="M101 222c10-58 38-91 79-91 42 0 73 35 82 92-23-23-50-34-82-34-31 0-57 11-79 33z" fill="#f4efe6"/><path d="M112 310c13 78 47 113 68 113s55-35 68-113c-23 31-45 43-68 43s-45-12-68-43z" fill="#f1ece3"/><path d="M128 274q20-14 40 0M192 274q20-14 40 0" fill="none" stroke="#533c36" stroke-width="7" stroke-linecap="round"/><circle cx="148" cy="278" r="4" fill="#26343a"/><circle cx="212" cy="278" r="4" fill="#26343a"/><path d="M162 326q18 12 36 0" fill="none" stroke="#874d45" stroke-width="5" stroke-linecap="round"/><path d="M95 525l50-65 35 49 35-49 50 65" fill="#f4e8d2"/><path d="M65 640l20-112 60-68 35 49 35-49 60 68 20 112" fill="url(#coat)"/></svg>